{"asset":{"generator":"3D Builder","version":"2.0"},"scene":0,"scenes":[{"nodes":[0]}],"nodes":[{"mesh":0,"matrix":[0.99999994039535522,0,0,0,0,0.99999904632568359,3.5762752759183059E-7,0,0,-3.57627357061574E-7,0.99999904632568359,0,-0.052045024931430817,0.066346369683742523,-0.016015030443668365,1]}],"meshes":[{"primitives":[{"attributes":{"POSITION":0,"TEXCOORD_0":28},"mode":4,"indices":29,"material":0},{"attributes":{"POSITION":1},"mode":4,"indices":30,"material":1},{"attributes":{"POSITION":2},"mode":4,"indices":31,"material":2},{"attributes":{"POSITION":3},"mode":4,"indices":32,"material":3},{"attributes":{"POSITION":4},"mode":4,"indices":33,"material":4},{"attributes":{"POSITION":5},"mode":4,"indices":34,"material":5},{"attributes":{"POSITION":6},"mode":4,"indices":35,"material":6},{"attributes":{"POSITION":7},"mode":4,"indices":36,"material":7},{"attributes":{"POSITION":8},"mode":4,"indices":37,"material":8},{"attributes":{"POSITION":9},"mode":4,"indices":38,"material":9},{"attributes":{"POSITION":10},"mode":4,"indices":39,"material":10},{"attributes":{"POSITION":11},"mode":4,"indices":40,"material":11},{"attributes":{"POSITION":12},"mode":4,"indices":41,"material":12},{"attributes":{"POSITION":13},"mode":4,"indices":42,"material":13},{"attributes":{"POSITION":14},"mode":4,"indices":43,"material":14},{"attributes":{"POSITION":15},"mode":4,"indices":44,"material":15},{"attributes":{"POSITION":16},"mode":4,"indices":45,"material":16},{"attributes":{"POSITION":17},"mode":4,"indices":46,"material":17},{"attributes":{"POSITION":18},"mode":4,"indices":47,"material":18},{"attributes":{"POSITION":19},"mode":4,"indices":48,"material":19},{"attributes":{"POSITION":20},"mode":4,"indices":49,"material":20},{"attributes":{"POSITION":21},"mode":4,"indices":50,"material":21},{"attributes":{"POSITION":22},"mode":4,"indices":51,"material":22},{"attributes":{"POSITION":23},"mode":4,"indices":52,"material":23},{"attributes":{"POSITION":24},"mode":4,"indices":53,"material":24},{"attributes":{"POSITION":25},"mode":4,"indices":54,"material":25},{"attributes":{"POSITION":26},"mode":4,"indices":55,"material":26},{"attributes":{"POSITION":27},"mode":4,"indices":56,"material":27}]}],"materials":[{"pbrMetallicRoughness":{"baseColorFactor":[1,1,1,1],"metallicFactor":0,"roughnessFactor":1},"alphaMode":"OPAQUE"},{"name":"191,191,191","pbrMetallicRoughness":{"baseColorFactor":[0.52099615335464478,0.52099615335464478,0.52099615335464478,1],"metallicFactor":0,"roughnessFactor":1},"alphaMode":"OPAQUE"},{"name":"10,10,10","pbrMetallicRoughness":{"baseColorFactor":[0.0030352941248565912,0.0030352941248565912,0.0030352941248565912,1],"metallicFactor":0,"roughnessFactor":1},"alphaMode":"OPAQUE"},{"name":"221,221,13","pbrMetallicRoughness":{"baseColorFactor":[0.72305572032928467,0.72305572032928467,0.00402468116953969,1],"metallicFactor":0,"roughnessFactor":1},"alphaMode":"OPAQUE"},{"name":"64,64,64","pbrMetallicRoughness":{"baseColorFactor":[0.051269300282001495,0.051269300282001495,0.051269300282001495,1],"metallicFactor":0,"roughnessFactor":1},"alphaMode":"OPAQUE"},{"name":"89,89,89","pbrMetallicRoughness":{"baseColorFactor":[0.099898964166641235,0.099898964166641235,0.099898964166641235,1],"metallicFactor":0,"roughnessFactor":1},"alphaMode":"OPAQUE"},{"name":"192,192,192","pbrMetallicRoughness":{"baseColorFactor":[0.52711492776870728,0.52711492776870728,0.52711492776870728,1],"metallicFactor":0,"roughnessFactor":1},"alphaMode":"OPAQUE"},{"name":"247,247,229","pbrMetallicRoughness":{"baseColorFactor":[0.93010979890823364,0.93010979890823364,0.78353738784790039,1],"metallicFactor":0,"roughnessFactor":1},"alphaMode":"OPAQUE"},{"name":"190,188,186","pbrMetallicRoughness":{"baseColorFactor":[0.51491767168045044,0.50288659334182739,0.49102127552032471,1],"metallicFactor":0,"roughnessFactor":1},"alphaMode":"OPAQUE"},{"name":"204,204,204","pbrMetallicRoughness":{"baseColorFactor":[0.60382741689682007,0.60382741689682007,0.60382741689682007,1],"metallicFactor":0,"roughnessFactor":1},"alphaMode":"OPAQUE"},{"name":"202,209,238","pbrMetallicRoughness":{"baseColorFactor":[0.59061914682388306,0.63759714365005493,0.85499203205108643,1],"metallicFactor":0,"roughnessFactor":1},"alphaMode":"OPAQUE"},{"name":"69,69,69","pbrMetallicRoughness":{"baseColorFactor":[0.059511143714189529,0.059511143714189529,0.059511143714189529,1],"metallicFactor":0,"roughnessFactor":1},"alphaMode":"OPAQUE"},{"name":"128,128,128","pbrMetallicRoughness":{"baseColorFactor":[0.21586070954799652,0.21586070954799652,0.21586070954799652,1],"metallicFactor":0,"roughnessFactor":1},"alphaMode":"OPAQUE"},{"name":"221,221,13_1","pbrMetallicRoughness":{"baseColorFactor":[0.72305572032928467,0.72305572032928467,0.00402468116953969,1],"metallicFactor":0,"roughnessFactor":1},"alphaMode":"OPAQUE"},{"name":"244,244,244","pbrMetallicRoughness":{"baseColorFactor":[0.90466177463531494,0.90466177463531494,0.90466177463531494,1],"metallicFactor":0,"roughnessFactor":1},"alphaMode":"OPAQUE"},{"name":"228,233,237","pbrMetallicRoughness":{"baseColorFactor":[0.77582305669784546,0.81484580039978027,0.84687381982803345,1],"metallicFactor":0,"roughnessFactor":1},"alphaMode":"OPAQUE"},{"name":"228,233,237_1","pbrMetallicRoughness":{"baseColorFactor":[0.77582305669784546,0.81484580039978027,0.84687381982803345,1],"metallicFactor":0,"roughnessFactor":1},"alphaMode":"OPAQUE"},{"name":"136,144,156","pbrMetallicRoughness":{"baseColorFactor":[0.24620102345943451,0.27889445424079895,0.33245193958282471,1],"metallicFactor":0,"roughnessFactor":1},"alphaMode":"OPAQUE"},{"name":"228,233,237_2","pbrMetallicRoughness":{"baseColorFactor":[0.77582305669784546,0.81484580039978027,0.84687381982803345,1],"metallicFactor":0,"roughnessFactor":1},"alphaMode":"OPAQUE"},{"name":"228,233,237_3","pbrMetallicRoughness":{"baseColorFactor":[0.77582305669784546,0.81484580039978027,0.84687381982803345,1],"metallicFactor":0,"roughnessFactor":1},"alphaMode":"OPAQUE"},{"name":"64,72,70","pbrMetallicRoughness":{"baseColorFactor":[0.051269300282001495,0.064803309738636017,0.061246141791343689,1],"metallicFactor":0,"roughnessFactor":1},"alphaMode":"OPAQUE"},{"name":"190,188,186_1","pbrMetallicRoughness":{"baseColorFactor":[0.51491767168045044,0.50288659334182739,0.49102127552032471,1],"metallicFactor":0,"roughnessFactor":1},"alphaMode":"OPAQUE"},{"name":"0,0,0","pbrMetallicRoughness":{"baseColorFactor":[0,0,0,1],"metallicFactor":0,"roughnessFactor":1},"alphaMode":"OPAQUE"},{"name":"E64F9847A82495F6FBED07553045608EB3803BCC","pbrMetallicRoughness":{"baseColorFactor":[1,1,1,1],"metallicFactor":0,"roughnessFactor":1},"alphaMode":"OPAQUE"},{"name":"2AF3319A11DCD32B1F17A50BCC1D778DD8A96504","pbrMetallicRoughness":{"baseColorFactor":[1,1,1,1],"metallicFactor":0,"roughnessFactor":1},"alphaMode":"OPAQUE"},{"name":"241,242,248","pbrMetallicRoughness":{"baseColorFactor":[0.87962234020233154,0.8879239559173584,0.93868589401245117,1],"metallicFactor":0,"roughnessFactor":1},"alphaMode":"OPAQUE"},{"name":"5,5,5","pbrMetallicRoughness":{"baseColorFactor":[0.0015176470624282956,0.0015176470624282956,0.0015176470624282956,1],"metallicFactor":0,"roughnessFactor":1},"alphaMode":"OPAQUE"},{"name":"190,188,186_2","pbrMetallicRoughness":{"baseColorFactor":[0.51491767168045044,0.50288659334182739,0.49102127552032471,1],"metallicFactor":0,"roughnessFactor":1},"alphaMode":"OPAQUE"}],"accessors":[{"bufferView":0,"byteOffset":0,"count":528592,"componentType":5126,"type":"VEC3","min":[-0.10599059611558914,-0.018419824540615082,-0.20225419104099274],"max":[0.21434760093688965,0.032226171344518661,0.22977526485919952]},{"bufferView":0,"byteOffset":6343104,"count":397582,"componentType":5126,"type":"VEC3","min":[-0.16678276658058167,-0.042249217629432678,-0.20240409672260284],"max":[0.27513882517814636,0.12721869349479675,0.22945050895214081]},{"bufferView":0,"byteOffset":11114088,"count":10396,"componentType":5126,"type":"VEC3","min":[-0.16194884479045868,-0.041516933590173721,-0.2021007239818573],"max":[0.27031776309013367,0.056251853704452515,0.22872920334339142]},{"bufferView":0,"byteOffset":11238840,"count":6984,"componentType":5126,"type":"VEC3","min":[-0.15822720527648926,-0.044531483203172684,-0.20431594550609589],"max":[0.26657956838607788,0.058584336191415787,0.2315976619720459]},{"bufferView":0,"byteOffset":11322648,"count":6680,"componentType":5126,"type":"VEC3","min":[-0.019040677696466446,0.0093435924500226974,-0.11965807527303696],"max":[0.11981911212205887,0.056138977408409119,-0.020820125937461853]},{"bufferView":0,"byteOffset":11402808,"count":8060,"componentType":5126,"type":"VEC3","min":[-0.021124469116330147,0.0014563851291313767,-0.12174557149410248],"max":[0.12190290540456772,0.064026139676570892,-0.018732627853751183]},{"bufferView":0,"byteOffset":11499528,"count":2414,"componentType":5126,"type":"VEC3","min":[-0.016225596889853477,0.0041046398691833019,-0.1210554838180542],"max":[0.11699790507555008,0.061377830803394318,-0.019421475008130074]},{"bufferView":0,"byteOffset":11528496,"count":3460,"componentType":5126,"type":"VEC3","min":[-0.021124469116330147,0.013863090425729752,-0.12174557149410248],"max":[0.12190290540456772,0.051619425415992737,-0.018732627853751183]},{"bufferView":0,"byteOffset":11570016,"count":532,"componentType":5126,"type":"VEC3","min":[0.042832221835851669,0.0096562160179018974,-0.11903969198465347],"max":[0.057947050780057907,0.055826302617788315,-0.065138377249240875]},{"bufferView":0,"byteOffset":11576400,"count":392,"componentType":5126,"type":"VEC3","min":[-0.017066538333892822,0.017298823222517967,-0.10429871827363968],"max":[0.11783890426158905,0.048183750361204147,-0.09817948192358017]},{"bufferView":0,"byteOffset":11581104,"count":5860,"componentType":5126,"type":"VEC3","min":[-0.017686882987618446,0.0232644435018301,-0.11824400722980499],"max":[0.11846531927585602,0.042218077927827835,-0.021234273910522461]},{"bufferView":0,"byteOffset":11651424,"count":96,"componentType":5126,"type":"VEC3","min":[0.04607265442609787,0.021254237741231918,-0.11833951622247696],"max":[0.054697327315807343,0.044228333979845047,-0.11153868585824966]},{"bufferView":0,"byteOffset":11652576,"count":2440,"componentType":5126,"type":"VEC3","min":[0.0072023984976112843,0.015102382749319077,-0.028513176366686821],"max":[0.093584142625331879,0.050380062311887741,-0.025965048000216484]},{"bufferView":0,"byteOffset":11681856,"count":168,"componentType":5126,"type":"VEC3","min":[-0.015136088244616985,0.01258524227887392,-0.10434525460004807],"max":[0.11590889096260071,0.052897326648235321,-0.094133086502552032]},{"bufferView":0,"byteOffset":11683872,"count":16394,"componentType":5126,"type":"VEC3","min":[-0.074797332286834717,-0.01682465523481369,-0.12721569836139679],"max":[0.15736046433448792,0.16513796150684357,0.22267347574234009]},{"bufferView":0,"byteOffset":11880600,"count":1110,"componentType":5126,"type":"VEC3","min":[-0.049665000289678574,-0.0079602831974625587,-0.13156615197658539],"max":[0.16234886646270752,0.13762864470481873,0.14097526669502258]},{"bufferView":0,"byteOffset":11893920,"count":204,"componentType":5126,"type":"VEC3","min":[0.067671388387680054,0.016069183126091957,0.10855726897716522],"max":[0.15763579308986664,0.033451035618782043,0.1417015939950943]},{"bufferView":0,"byteOffset":11896368,"count":1604,"componentType":5126,"type":"VEC3","min":[-0.067597627639770508,0.022352280095219612,0.0351104699075222],"max":[0.12262862920761108,0.06563471257686615,0.076821967959403992]},{"bufferView":0,"byteOffset":11915616,"count":3168,"componentType":5126,"type":"VEC3","min":[-0.074437826871871948,0.030047589913010597,-0.12046708911657333],"max":[0.13871428370475769,0.16370047628879547,0.035693399608135223]},{"bufferView":0,"byteOffset":11953632,"count":639,"componentType":5126,"type":"VEC3","min":[-0.0650058388710022,0.048891466110944748,-0.014339722692966461],"max":[0.02554708905518055,0.0661902204155922,0.0094422716647386551]},{"bufferView":0,"byteOffset":11961300,"count":114,"componentType":5126,"type":"VEC3","min":[-0.064705103635787964,0.11031753569841385,-0.11328566819429398],"max":[-0.057084161788225174,0.11625780165195465,-0.10494411736726761]},{"bufferView":0,"byteOffset":11962668,"count":9164,"componentType":5126,"type":"VEC3","min":[-0.078870296478271484,0.019287794828414917,-0.18096315860748291],"max":[-0.043579868972301483,0.12315688282251358,-0.096079640090465546]},{"bufferView":0,"byteOffset":12072636,"count":60,"componentType":5126,"type":"VEC3","min":[-0.076940767467021942,0.0817677304148674,-0.13836207985877991],"max":[-0.045049566775560379,0.11218743026256561,-0.10357145220041275]},{"bufferView":0,"byteOffset":12073356,"count":536,"componentType":5126,"type":"VEC3","min":[-0.07394716888666153,0.033315401524305344,-0.17599664628505707],"max":[-0.052469696849584579,0.11791124939918518,-0.10313006490468979]},{"bufferView":0,"byteOffset":12079788,"count":56,"componentType":5126,"type":"VEC3","min":[-0.080096207559108734,0.043012585490942,-0.16556896269321442],"max":[-0.042383000254631042,0.0918928012251854,-0.11589194089174271]},{"bufferView":0,"byteOffset":12080460,"count":60,"componentType":5126,"type":"VEC3","min":[-0.076967567205429077,0.030524196103215218,-0.17900528013706207],"max":[-0.065601944923400879,0.044180784374475479,-0.163550466299057]},{"bufferView":0,"byteOffset":12081180,"count":2255,"componentType":5126,"type":"VEC3","min":[-0.08001401275396347,0.014173352159559727,-0.18526460230350494],"max":[-0.043045405298471451,0.049547042697668076,-0.14464706182479858]},{"bufferView":0,"byteOffset":12108240,"count":85,"componentType":5126,"type":"VEC3","min":[-0.063862122595310211,0.1076553612947464,-0.11517558991909027],"max":[-0.057727061212062836,0.13563257455825806,-0.0935899093747139]},{"bufferView":1,"byteOffset":0,"count":528592,"componentType":5126,"type":"VEC2"},{"bufferView":2,"byteOffset":0,"count":1618812,"componentType":5125,"type":"SCALAR"},{"bufferView":2,"byteOffset":6475248,"count":2382390,"componentType":5125,"type":"SCALAR"},{"bufferView":2,"byteOffset":16004808,"count":64824,"componentType":5125,"type":"SCALAR"},{"bufferView":2,"byteOffset":16264104,"count":41904,"componentType":5125,"type":"SCALAR"},{"bufferView":2,"byteOffset":16431720,"count":40320,"componentType":5125,"type":"SCALAR"},{"bufferView":2,"byteOffset":16593000,"count":47874,"componentType":5125,"type":"SCALAR"},{"bufferView":2,"byteOffset":16784496,"count":8916,"componentType":5125,"type":"SCALAR"},{"bufferView":2,"byteOffset":16820160,"count":18216,"componentType":5125,"type":"SCALAR"},{"bufferView":2,"byteOffset":16893024,"count":2604,"componentType":5125,"type":"SCALAR"},{"bufferView":2,"byteOffset":16903440,"count":1998,"componentType":5125,"type":"SCALAR"},{"bufferView":2,"byteOffset":16911432,"count":38976,"componentType":5125,"type":"SCALAR"},{"bufferView":2,"byteOffset":17067336,"count":480,"componentType":5125,"type":"SCALAR"},{"bufferView":2,"byteOffset":17069256,"count":14616,"componentType":5125,"type":"SCALAR"},{"bufferView":2,"byteOffset":17127720,"count":816,"componentType":5125,"type":"SCALAR"},{"bufferView":2,"byteOffset":17130984,"count":106650,"componentType":5125,"type":"SCALAR"},{"bufferView":2,"byteOffset":17557584,"count":7200,"componentType":5125,"type":"SCALAR"},{"bufferView":2,"byteOffset":17586384,"count":1332,"componentType":5125,"type":"SCALAR"},{"bufferView":2,"byteOffset":17591712,"count":10620,"componentType":5125,"type":"SCALAR"},{"bufferView":2,"byteOffset":17634192,"count":20448,"componentType":5125,"type":"SCALAR"},{"bufferView":2,"byteOffset":17715984,"count":4122,"componentType":5125,"type":"SCALAR"},{"bufferView":2,"byteOffset":17732472,"count":672,"componentType":5125,"type":"SCALAR"},{"bufferView":2,"byteOffset":17735160,"count":54936,"componentType":5125,"type":"SCALAR"},{"bufferView":2,"byteOffset":17954904,"count":348,"componentType":5125,"type":"SCALAR"},{"bufferView":2,"byteOffset":17956296,"count":3168,"componentType":5125,"type":"SCALAR"},{"bufferView":2,"byteOffset":17968968,"count":324,"componentType":5125,"type":"SCALAR"},{"bufferView":2,"byteOffset":17970264,"count":348,"componentType":5125,"type":"SCALAR"},{"bufferView":2,"byteOffset":17971656,"count":13542,"componentType":5125,"type":"SCALAR"},{"bufferView":2,"byteOffset":18025824,"count":498,"componentType":5125,"type":"SCALAR"}],"bufferViews":[{"buffer":0,"byteOffset":0,"byteLength":12109260,"byteStride":12,"target":34962},{"buffer":0,"byteOffset":12109260,"byteLength":4228736,"byteStride":8,"target":34962},{"buffer":0,"byteOffset":16337996,"byteLength":18027816,"target":34963}],"buffers":[{"byteLength":34365812,"uri":"Bently.bin"}]}